<mxfile host="app.diagrams.net" modified="2022-05-12T08:18:06.192Z" agent="5.0 (Windows)" etag="yZgP63wOMSfnP6ySQ1Mm" version="18.0.3" type="github">
  <diagram id="AmO3VE7Y9i2ye-rAvOHE" name="Page-1">
    <mxGraphModel dx="1007" dy="530" grid="1" gridSize="10" guides="1" tooltips="1" connect="1" arrows="1" fold="1" page="1" pageScale="1" pageWidth="605" pageHeight="415" math="0" shadow="0">
      <root>
        <mxCell id="0" />
        <mxCell id="1" parent="0" />
        <mxCell id="lqNG4nR6wOAyKXBrpQ9X-1" value="" style="ellipse;whiteSpace=wrap;html=1;aspect=fixed;" vertex="1" parent="1">
          <mxGeometry x="252" y="40" width="80" height="80" as="geometry" />
        </mxCell>
        <mxCell id="lqNG4nR6wOAyKXBrpQ9X-2" value="" style="rounded=0;whiteSpace=wrap;html=1;" vertex="1" parent="1">
          <mxGeometry x="392" y="160" width="80" height="120" as="geometry" />
        </mxCell>
        <mxCell id="lqNG4nR6wOAyKXBrpQ9X-3" value="" style="rounded=0;whiteSpace=wrap;html=1;gradientColor=#ffffff;" vertex="1" parent="1">
          <mxGeometry x="132" y="160" width="80" height="120" as="geometry" />
        </mxCell>
        <mxCell id="lqNG4nR6wOAyKXBrpQ9X-4" value="" style="triangle;whiteSpace=wrap;html=1;rotation=-180;" vertex="1" parent="1">
          <mxGeometry x="292" y="336" width="40" height="40" as="geometry" />
        </mxCell>
        <mxCell id="lqNG4nR6wOAyKXBrpQ9X-5" value="" style="triangle;whiteSpace=wrap;html=1;" vertex="1" parent="1">
          <mxGeometry x="252" y="336" width="40" height="40" as="geometry" />
        </mxCell>
        <mxCell id="lqNG4nR6wOAyKXBrpQ9X-14" value="" style="endArrow=none;html=1;rounded=0;entryX=1;entryY=0.5;entryDx=0;entryDy=0;exitX=0.5;exitY=0;exitDx=0;exitDy=0;shape=link;" edge="1" parent="1" source="lqNG4nR6wOAyKXBrpQ9X-2">
          <mxGeometry width="50" height="50" relative="1" as="geometry">
            <mxPoint x="242" y="330" as="sourcePoint" />
            <mxPoint x="332" y="80" as="targetPoint" />
            <Array as="points">
              <mxPoint x="432" y="80" />
            </Array>
          </mxGeometry>
        </mxCell>
        <mxCell id="lqNG4nR6wOAyKXBrpQ9X-15" value="" style="endArrow=none;html=1;rounded=0;entryX=0.5;entryY=1;entryDx=0;entryDy=0;exitX=0;exitY=0.5;exitDx=0;exitDy=0;shape=link;" edge="1" parent="1" source="lqNG4nR6wOAyKXBrpQ9X-4" target="lqNG4nR6wOAyKXBrpQ9X-2">
          <mxGeometry width="50" height="50" relative="1" as="geometry">
            <mxPoint x="392" y="356" as="sourcePoint" />
            <mxPoint x="432" y="256" as="targetPoint" />
            <Array as="points">
              <mxPoint x="432" y="356" />
            </Array>
          </mxGeometry>
        </mxCell>
        <mxCell id="lqNG4nR6wOAyKXBrpQ9X-16" value="" style="endArrow=none;html=1;rounded=0;exitX=0.5;exitY=1;exitDx=0;exitDy=0;entryX=0;entryY=0.5;entryDx=0;entryDy=0;shape=link;" edge="1" parent="1" source="lqNG4nR6wOAyKXBrpQ9X-3" target="lqNG4nR6wOAyKXBrpQ9X-5">
          <mxGeometry width="50" height="50" relative="1" as="geometry">
            <mxPoint x="172" y="256" as="sourcePoint" />
            <mxPoint x="502" y="366" as="targetPoint" />
            <Array as="points">
              <mxPoint x="172" y="356" />
            </Array>
          </mxGeometry>
        </mxCell>
        <mxCell id="lqNG4nR6wOAyKXBrpQ9X-17" value="" style="endArrow=none;html=1;rounded=0;entryX=0.5;entryY=0;entryDx=0;entryDy=0;exitX=0;exitY=0.5;exitDx=0;exitDy=0;shape=link;" edge="1" parent="1" source="lqNG4nR6wOAyKXBrpQ9X-1" target="lqNG4nR6wOAyKXBrpQ9X-3">
          <mxGeometry width="50" height="50" relative="1" as="geometry">
            <mxPoint x="192" y="50" as="sourcePoint" />
            <mxPoint x="262" y="390" as="targetPoint" />
            <Array as="points">
              <mxPoint x="172" y="80" />
            </Array>
          </mxGeometry>
        </mxCell>
        <mxCell id="lqNG4nR6wOAyKXBrpQ9X-18" value="" style="endArrow=none;html=1;rounded=0;entryX=0.963;entryY=0.304;entryDx=0;entryDy=0;entryPerimeter=0;exitX=0;exitY=0;exitDx=0;exitDy=0;" edge="1" parent="1" source="lqNG4nR6wOAyKXBrpQ9X-1" target="lqNG4nR6wOAyKXBrpQ9X-1">
          <mxGeometry width="50" height="50" relative="1" as="geometry">
            <mxPoint x="382" y="280" as="sourcePoint" />
            <mxPoint x="432" y="230" as="targetPoint" />
          </mxGeometry>
        </mxCell>
        <mxCell id="lqNG4nR6wOAyKXBrpQ9X-19" value="" style="endArrow=none;html=1;rounded=0;entryX=0.965;entryY=0.689;entryDx=0;entryDy=0;exitX=0;exitY=1;exitDx=0;exitDy=0;entryPerimeter=0;" edge="1" parent="1" source="lqNG4nR6wOAyKXBrpQ9X-1" target="lqNG4nR6wOAyKXBrpQ9X-1">
          <mxGeometry width="50" height="50" relative="1" as="geometry">
            <mxPoint x="362" y="40" as="sourcePoint" />
            <mxPoint x="334.6400000000001" y="68.24000000000001" as="targetPoint" />
          </mxGeometry>
        </mxCell>
        <mxCell id="lqNG4nR6wOAyKXBrpQ9X-20" value="" style="endArrow=none;html=1;rounded=0;" edge="1" parent="1">
          <mxGeometry width="50" height="50" relative="1" as="geometry">
            <mxPoint x="202" y="199.76999999999987" as="sourcePoint" />
            <mxPoint x="142" y="199.76999999999987" as="targetPoint" />
          </mxGeometry>
        </mxCell>
        <mxCell id="lqNG4nR6wOAyKXBrpQ9X-21" value="" style="endArrow=none;html=1;rounded=0;" edge="1" parent="1">
          <mxGeometry width="50" height="50" relative="1" as="geometry">
            <mxPoint x="202" y="209.76999999999987" as="sourcePoint" />
            <mxPoint x="142" y="209.76999999999987" as="targetPoint" />
          </mxGeometry>
        </mxCell>
        <mxCell id="lqNG4nR6wOAyKXBrpQ9X-22" value="" style="endArrow=none;html=1;rounded=0;" edge="1" parent="1">
          <mxGeometry width="50" height="50" relative="1" as="geometry">
            <mxPoint x="202" y="219.76999999999987" as="sourcePoint" />
            <mxPoint x="142" y="219.76999999999987" as="targetPoint" />
          </mxGeometry>
        </mxCell>
        <mxCell id="lqNG4nR6wOAyKXBrpQ9X-23" value="" style="endArrow=none;html=1;rounded=0;" edge="1" parent="1">
          <mxGeometry width="50" height="50" relative="1" as="geometry">
            <mxPoint x="202" y="229.76999999999987" as="sourcePoint" />
            <mxPoint x="142" y="229.76999999999987" as="targetPoint" />
          </mxGeometry>
        </mxCell>
        <mxCell id="lqNG4nR6wOAyKXBrpQ9X-24" value="" style="endArrow=none;html=1;rounded=0;" edge="1" parent="1">
          <mxGeometry width="50" height="50" relative="1" as="geometry">
            <mxPoint x="202" y="239.46000000000004" as="sourcePoint" />
            <mxPoint x="142" y="239.46000000000004" as="targetPoint" />
          </mxGeometry>
        </mxCell>
        <mxCell id="lqNG4nR6wOAyKXBrpQ9X-25" value="" style="endArrow=none;html=1;rounded=0;" edge="1" parent="1">
          <mxGeometry width="50" height="50" relative="1" as="geometry">
            <mxPoint x="202" y="249.46000000000004" as="sourcePoint" />
            <mxPoint x="142" y="249.46000000000004" as="targetPoint" />
          </mxGeometry>
        </mxCell>
        <mxCell id="lqNG4nR6wOAyKXBrpQ9X-26" value="" style="endArrow=none;html=1;rounded=0;" edge="1" parent="1">
          <mxGeometry width="50" height="50" relative="1" as="geometry">
            <mxPoint x="202" y="259.46000000000004" as="sourcePoint" />
            <mxPoint x="142" y="259.46000000000004" as="targetPoint" />
          </mxGeometry>
        </mxCell>
        <mxCell id="lqNG4nR6wOAyKXBrpQ9X-27" value="" style="endArrow=none;html=1;rounded=0;sketch=0;shadow=0;" edge="1" parent="1">
          <mxGeometry width="50" height="50" relative="1" as="geometry">
            <mxPoint x="202" y="269.46000000000004" as="sourcePoint" />
            <mxPoint x="142" y="269.46000000000004" as="targetPoint" />
          </mxGeometry>
        </mxCell>
        <mxCell id="lqNG4nR6wOAyKXBrpQ9X-28" value="" style="endArrow=none;html=1;rounded=0;" edge="1" parent="1">
          <mxGeometry width="50" height="50" relative="1" as="geometry">
            <mxPoint x="462" y="170" as="sourcePoint" />
            <mxPoint x="402" y="170" as="targetPoint" />
          </mxGeometry>
        </mxCell>
        <mxCell id="lqNG4nR6wOAyKXBrpQ9X-29" value="" style="endArrow=none;html=1;rounded=0;" edge="1" parent="1">
          <mxGeometry width="50" height="50" relative="1" as="geometry">
            <mxPoint x="462" y="180" as="sourcePoint" />
            <mxPoint x="402" y="180" as="targetPoint" />
          </mxGeometry>
        </mxCell>
        <mxCell id="lqNG4nR6wOAyKXBrpQ9X-30" value="" style="endArrow=none;html=1;rounded=0;" edge="1" parent="1">
          <mxGeometry width="50" height="50" relative="1" as="geometry">
            <mxPoint x="462" y="190" as="sourcePoint" />
            <mxPoint x="402" y="190" as="targetPoint" />
          </mxGeometry>
        </mxCell>
        <mxCell id="lqNG4nR6wOAyKXBrpQ9X-31" value="" style="endArrow=none;html=1;rounded=0;" edge="1" parent="1">
          <mxGeometry width="50" height="50" relative="1" as="geometry">
            <mxPoint x="462" y="200" as="sourcePoint" />
            <mxPoint x="402" y="200" as="targetPoint" />
          </mxGeometry>
        </mxCell>
        <mxCell id="lqNG4nR6wOAyKXBrpQ9X-32" value="" style="endArrow=none;html=1;rounded=0;" edge="1" parent="1">
          <mxGeometry width="50" height="50" relative="1" as="geometry">
            <mxPoint x="462" y="209.69000000000005" as="sourcePoint" />
            <mxPoint x="402" y="209.69000000000005" as="targetPoint" />
          </mxGeometry>
        </mxCell>
        <mxCell id="lqNG4nR6wOAyKXBrpQ9X-33" value="" style="endArrow=none;html=1;rounded=0;" edge="1" parent="1">
          <mxGeometry width="50" height="50" relative="1" as="geometry">
            <mxPoint x="462" y="219.69000000000005" as="sourcePoint" />
            <mxPoint x="402" y="219.69000000000005" as="targetPoint" />
          </mxGeometry>
        </mxCell>
        <mxCell id="lqNG4nR6wOAyKXBrpQ9X-34" value="" style="endArrow=none;html=1;rounded=0;" edge="1" parent="1">
          <mxGeometry width="50" height="50" relative="1" as="geometry">
            <mxPoint x="462" y="229.69000000000005" as="sourcePoint" />
            <mxPoint x="402" y="229.69000000000005" as="targetPoint" />
          </mxGeometry>
        </mxCell>
        <mxCell id="lqNG4nR6wOAyKXBrpQ9X-35" value="" style="endArrow=none;html=1;rounded=0;" edge="1" parent="1">
          <mxGeometry width="50" height="50" relative="1" as="geometry">
            <mxPoint x="462" y="239.69000000000005" as="sourcePoint" />
            <mxPoint x="402" y="239.69000000000005" as="targetPoint" />
          </mxGeometry>
        </mxCell>
        <mxCell id="lqNG4nR6wOAyKXBrpQ9X-36" value="" style="endArrow=none;html=1;rounded=0;" edge="1" parent="1">
          <mxGeometry width="50" height="50" relative="1" as="geometry">
            <mxPoint x="462" y="250" as="sourcePoint" />
            <mxPoint x="402" y="250" as="targetPoint" />
          </mxGeometry>
        </mxCell>
        <mxCell id="lqNG4nR6wOAyKXBrpQ9X-37" value="" style="endArrow=none;html=1;rounded=0;" edge="1" parent="1">
          <mxGeometry width="50" height="50" relative="1" as="geometry">
            <mxPoint x="462" y="260" as="sourcePoint" />
            <mxPoint x="402" y="260" as="targetPoint" />
          </mxGeometry>
        </mxCell>
        <mxCell id="lqNG4nR6wOAyKXBrpQ9X-38" value="" style="endArrow=none;html=1;rounded=0;" edge="1" parent="1">
          <mxGeometry width="50" height="50" relative="1" as="geometry">
            <mxPoint x="462" y="270" as="sourcePoint" />
            <mxPoint x="402" y="270" as="targetPoint" />
          </mxGeometry>
        </mxCell>
        <mxCell id="lqNG4nR6wOAyKXBrpQ9X-39" value="" style="endArrow=none;html=1;rounded=0;" edge="1" parent="1">
          <mxGeometry width="50" height="50" relative="1" as="geometry">
            <mxPoint x="202" y="169.76999999999987" as="sourcePoint" />
            <mxPoint x="142" y="169.76999999999987" as="targetPoint" />
          </mxGeometry>
        </mxCell>
        <mxCell id="lqNG4nR6wOAyKXBrpQ9X-40" value="" style="endArrow=none;html=1;rounded=0;" edge="1" parent="1">
          <mxGeometry width="50" height="50" relative="1" as="geometry">
            <mxPoint x="202" y="179.76999999999987" as="sourcePoint" />
            <mxPoint x="142" y="179.76999999999987" as="targetPoint" />
          </mxGeometry>
        </mxCell>
        <mxCell id="lqNG4nR6wOAyKXBrpQ9X-41" value="" style="endArrow=none;html=1;rounded=0;" edge="1" parent="1">
          <mxGeometry width="50" height="50" relative="1" as="geometry">
            <mxPoint x="202" y="189.76999999999987" as="sourcePoint" />
            <mxPoint x="142" y="189.76999999999987" as="targetPoint" />
          </mxGeometry>
        </mxCell>
        <mxCell id="lqNG4nR6wOAyKXBrpQ9X-42" value="Compressor&amp;nbsp;" style="text;html=1;strokeColor=none;fillColor=none;align=center;verticalAlign=middle;whiteSpace=wrap;rounded=0;" vertex="1" parent="1">
          <mxGeometry x="262" y="13" width="60" height="30" as="geometry" />
        </mxCell>
        <mxCell id="lqNG4nR6wOAyKXBrpQ9X-43" value="Condenser" style="text;html=1;strokeColor=none;fillColor=none;align=center;verticalAlign=middle;whiteSpace=wrap;rounded=0;" vertex="1" parent="1">
          <mxGeometry x="442" y="130" width="60" height="30" as="geometry" />
        </mxCell>
        <mxCell id="lqNG4nR6wOAyKXBrpQ9X-44" value="Evaporator" style="text;html=1;strokeColor=none;fillColor=none;align=center;verticalAlign=middle;whiteSpace=wrap;rounded=0;" vertex="1" parent="1">
          <mxGeometry x="102" y="130" width="60" height="30" as="geometry" />
        </mxCell>
        <mxCell id="lqNG4nR6wOAyKXBrpQ9X-45" value="Expansion valve" style="text;html=1;strokeColor=none;fillColor=none;align=center;verticalAlign=middle;whiteSpace=wrap;rounded=0;" vertex="1" parent="1">
          <mxGeometry x="262" y="306" width="60" height="30" as="geometry" />
        </mxCell>
        <mxCell id="lqNG4nR6wOAyKXBrpQ9X-59" value="1" style="ellipse;whiteSpace=wrap;html=1;aspect=fixed;fontSize=15;" vertex="1" parent="1">
          <mxGeometry x="180" y="86" width="25" height="25" as="geometry" />
        </mxCell>
        <mxCell id="lqNG4nR6wOAyKXBrpQ9X-60" value="2" style="ellipse;whiteSpace=wrap;html=1;aspect=fixed;fontSize=15;" vertex="1" parent="1">
          <mxGeometry x="397" y="86" width="25" height="25" as="geometry" />
        </mxCell>
        <mxCell id="lqNG4nR6wOAyKXBrpQ9X-61" value="3" style="ellipse;whiteSpace=wrap;html=1;aspect=fixed;fontSize=15;" vertex="1" parent="1">
          <mxGeometry x="392" y="323" width="25" height="25" as="geometry" />
        </mxCell>
        <mxCell id="lqNG4nR6wOAyKXBrpQ9X-62" value="4" style="ellipse;whiteSpace=wrap;html=1;aspect=fixed;fontSize=15;" vertex="1" parent="1">
          <mxGeometry x="183" y="323" width="25" height="25" as="geometry" />
        </mxCell>
        <mxCell id="lqNG4nR6wOAyKXBrpQ9X-132" value="" style="group" vertex="1" connectable="0" parent="1">
          <mxGeometry x="100" y="183" width="32" height="70" as="geometry" />
        </mxCell>
        <mxCell id="lqNG4nR6wOAyKXBrpQ9X-63" value="" style="shape=flexArrow;endArrow=classic;html=1;rounded=0;width=3.333333333333333;endSize=4.6305555555555555;endWidth=10.74074074074074;fillColor=#f8cecc;strokeColor=#b85450;" edge="1" parent="lqNG4nR6wOAyKXBrpQ9X-132">
          <mxGeometry width="50" height="50" relative="1" as="geometry">
            <mxPoint as="sourcePoint" />
            <mxPoint x="31.999999999999932" as="targetPoint" />
          </mxGeometry>
        </mxCell>
        <mxCell id="lqNG4nR6wOAyKXBrpQ9X-126" value="" style="shape=flexArrow;endArrow=classic;html=1;rounded=0;width=3.333333333333333;endSize=4.6305555555555555;endWidth=10.74074074074074;fillColor=#f8cecc;strokeColor=#b85450;" edge="1" parent="lqNG4nR6wOAyKXBrpQ9X-132">
          <mxGeometry width="50" height="50" relative="1" as="geometry">
            <mxPoint y="23" as="sourcePoint" />
            <mxPoint x="31.999999999999932" y="23" as="targetPoint" />
          </mxGeometry>
        </mxCell>
        <mxCell id="lqNG4nR6wOAyKXBrpQ9X-130" value="" style="shape=flexArrow;endArrow=classic;html=1;rounded=0;width=3.333333333333333;endSize=4.6305555555555555;endWidth=10.74074074074074;fillColor=#f8cecc;strokeColor=#b85450;" edge="1" parent="lqNG4nR6wOAyKXBrpQ9X-132">
          <mxGeometry width="50" height="50" relative="1" as="geometry">
            <mxPoint y="47" as="sourcePoint" />
            <mxPoint x="32" y="47" as="targetPoint" />
          </mxGeometry>
        </mxCell>
        <mxCell id="lqNG4nR6wOAyKXBrpQ9X-131" value="" style="shape=flexArrow;endArrow=classic;html=1;rounded=0;width=3.333333333333333;endSize=4.6305555555555555;endWidth=10.74074074074074;fillColor=#f8cecc;strokeColor=#b85450;" edge="1" parent="lqNG4nR6wOAyKXBrpQ9X-132">
          <mxGeometry width="50" height="50" relative="1" as="geometry">
            <mxPoint y="70" as="sourcePoint" />
            <mxPoint x="32" y="70" as="targetPoint" />
          </mxGeometry>
        </mxCell>
        <mxCell id="lqNG4nR6wOAyKXBrpQ9X-143" value="" style="group" vertex="1" connectable="0" parent="1">
          <mxGeometry x="472" y="183" width="32" height="70" as="geometry" />
        </mxCell>
        <mxCell id="lqNG4nR6wOAyKXBrpQ9X-144" value="" style="shape=flexArrow;endArrow=classic;html=1;rounded=0;width=3.333333333333333;endSize=4.6305555555555555;endWidth=10.74074074074074;fillColor=#f8cecc;strokeColor=#b85450;" edge="1" parent="lqNG4nR6wOAyKXBrpQ9X-143">
          <mxGeometry width="50" height="50" relative="1" as="geometry">
            <mxPoint as="sourcePoint" />
            <mxPoint x="31.999999999999932" as="targetPoint" />
          </mxGeometry>
        </mxCell>
        <mxCell id="lqNG4nR6wOAyKXBrpQ9X-145" value="" style="shape=flexArrow;endArrow=classic;html=1;rounded=0;width=3.333333333333333;endSize=4.6305555555555555;endWidth=10.74074074074074;fillColor=#f8cecc;strokeColor=#b85450;" edge="1" parent="lqNG4nR6wOAyKXBrpQ9X-143">
          <mxGeometry width="50" height="50" relative="1" as="geometry">
            <mxPoint y="23" as="sourcePoint" />
            <mxPoint x="31.999999999999932" y="23" as="targetPoint" />
          </mxGeometry>
        </mxCell>
        <mxCell id="lqNG4nR6wOAyKXBrpQ9X-146" value="" style="shape=flexArrow;endArrow=classic;html=1;rounded=0;width=3.333333333333333;endSize=4.6305555555555555;endWidth=10.74074074074074;fillColor=#f8cecc;strokeColor=#b85450;" edge="1" parent="lqNG4nR6wOAyKXBrpQ9X-143">
          <mxGeometry width="50" height="50" relative="1" as="geometry">
            <mxPoint y="47" as="sourcePoint" />
            <mxPoint x="32" y="47" as="targetPoint" />
          </mxGeometry>
        </mxCell>
        <mxCell id="lqNG4nR6wOAyKXBrpQ9X-147" value="" style="shape=flexArrow;endArrow=classic;html=1;rounded=0;width=3.333333333333333;endSize=4.6305555555555555;endWidth=10.74074074074074;fillColor=#f8cecc;strokeColor=#b85450;" edge="1" parent="lqNG4nR6wOAyKXBrpQ9X-143">
          <mxGeometry width="50" height="50" relative="1" as="geometry">
            <mxPoint y="70" as="sourcePoint" />
            <mxPoint x="32" y="70" as="targetPoint" />
          </mxGeometry>
        </mxCell>
      </root>
    </mxGraphModel>
  </diagram>
</mxfile>
